<svg width="27" height="26" viewBox="0 0 27 26" fill="none" xmlns="http://www.w3.org/2000/svg">
<path d="M10.3623 25.1924C9.09039 25.1924 7.97751 24.9539 7.02361 24.477C6.06971 24 5.2975 23.33 4.707 22.467L4.23005 24.7836H0.346313V0.254761H4.707V10.3048C5.25208 9.55528 5.9675 8.89663 6.85327 8.32884C7.76174 7.76104 8.93141 7.47714 10.3623 7.47714C11.9521 7.47714 13.3716 7.86324 14.6207 8.63545C15.8699 9.40765 16.8579 10.4638 17.5846 11.8038C18.3114 13.1438 18.6748 14.6655 18.6748 16.3688C18.6748 18.0722 18.3114 19.5939 17.5846 20.9339C16.8579 22.2512 15.8699 23.296 14.6207 24.0682C13.3716 24.8177 11.9521 25.1924 10.3623 25.1924ZM9.44242 21.3768C10.8278 21.3768 11.9748 20.9112 12.8833 19.98C13.7917 19.0488 14.246 17.8451 14.246 16.3688C14.246 14.8926 13.7917 13.6775 12.8833 12.7236C11.9748 11.7697 10.8278 11.2927 9.44242 11.2927C8.03429 11.2927 6.87598 11.7697 5.96751 12.7236C5.08174 13.6548 4.63886 14.8585 4.63886 16.3348C4.63886 17.8111 5.08174 19.0261 5.96751 19.98C6.87598 20.9112 8.03429 21.3768 9.44242 21.3768Z" fill="white"/>
<path d="M23.4219 25.0221C22.627 25.0221 21.9684 24.7722 21.446 24.2726C20.9463 23.7729 20.6965 23.1711 20.6965 22.467C20.6965 21.7402 20.9463 21.127 21.446 20.6273C21.9684 20.1277 22.627 19.8778 23.4219 19.8778C24.2169 19.8778 24.8642 20.1277 25.3638 20.6273C25.8862 21.127 26.1474 21.7402 26.1474 22.467C26.1474 23.1711 25.8862 23.7729 25.3638 24.2726C24.8642 24.7722 24.2169 25.0221 23.4219 25.0221Z" fill="white"/>
</svg>
