<svg width="25" height="26" viewBox="0 0 25 26" fill="none" xmlns="http://www.w3.org/2000/svg">
<path d="M9.33333 23.057H4.66667V25.3903H2.33333V23.057H1.16667C0.857247 23.057 0.560501 22.9341 0.341709 22.7153C0.122916 22.4965 0 22.1998 0 21.8903V4.39034C0 4.08092 0.122916 3.78417 0.341709 3.56538C0.560501 3.34659 0.857247 3.22367 1.16667 3.22367H9.33333V1.57867C9.33337 1.49399 9.35185 1.41034 9.38747 1.33352C9.42309 1.25671 9.47502 1.18856 9.53963 1.13383C9.60424 1.0791 9.67999 1.03909 9.76162 1.01659C9.84325 0.994081 9.9288 0.989617 10.0123 1.0035L22.358 3.0615C22.6304 3.10679 22.8779 3.24725 23.0565 3.45789C23.2351 3.66852 23.3332 3.93568 23.3333 4.21184V6.72367H24.5V9.057H23.3333V17.2237H24.5V19.557H23.3333V22.0688C23.3332 22.345 23.2351 22.6122 23.0565 22.8228C22.8779 23.0334 22.6304 23.1739 22.358 23.2192L21 23.4455V25.3903H18.6667V23.8352L10.0123 25.2772C9.9288 25.2911 9.84325 25.2866 9.76162 25.2641C9.67999 25.2416 9.60424 25.2016 9.53963 25.1468C9.47502 25.0921 9.42309 25.024 9.38747 24.9472C9.35185 24.8703 9.33337 24.7867 9.33333 24.702V23.057ZM11.6667 22.637L21 21.0807V5.2L11.6667 3.64484V22.6358V22.637ZM16.9167 16.057C15.9507 16.057 15.1667 14.7503 15.1667 13.1403C15.1667 11.5303 15.9507 10.2237 16.9167 10.2237C17.8827 10.2237 18.6667 11.5303 18.6667 13.1403C18.6667 14.7503 17.8827 16.057 16.9167 16.057Z" fill="#5BB5A2"/>
</svg>
