<svg width="17" height="24" viewBox="0 0 17 24" fill="none" xmlns="http://www.w3.org/2000/svg">
<path d="M2.33333 2.33333V21H14V2.33333H2.33333ZM1.16667 0H15.1667C15.4761 0 15.7728 0.122916 15.9916 0.341709C16.2104 0.560501 16.3333 0.857247 16.3333 1.16667V22.1667C16.3333 22.4761 16.2104 22.7728 15.9916 22.9916C15.7728 23.2104 15.4761 23.3333 15.1667 23.3333H1.16667C0.857247 23.3333 0.560501 23.2104 0.341709 22.9916C0.122917 22.7728 0 22.4761 0 22.1667V1.16667C0 0.857247 0.122917 0.560501 0.341709 0.341709C0.560501 0.122916 0.857247 0 1.16667 0ZM8.16667 17.5C8.47609 17.5 8.77283 17.6229 8.99162 17.8417C9.21042 18.0605 9.33333 18.3572 9.33333 18.6667C9.33333 18.9761 9.21042 19.2728 8.99162 19.4916C8.77283 19.7104 8.47609 19.8333 8.16667 19.8333C7.85725 19.8333 7.5605 19.7104 7.34171 19.4916C7.12292 19.2728 7 18.9761 7 18.6667C7 18.3572 7.12292 18.0605 7.34171 17.8417C7.5605 17.6229 7.85725 17.5 8.16667 17.5V17.5Z" fill="#5BB5A2"/>
</svg>
