<svg width="27" height="21" viewBox="0 0 27 21" fill="none" xmlns="http://www.w3.org/2000/svg">
<path d="M0 4.66319C3.73227 1.63956 8.39165 -0.00708286 13.195 2.29015e-05C18.1942 2.29015e-05 22.785 1.74652 26.39 4.66319L24.9247 6.47852C21.6069 3.79061 17.4649 2.32687 13.195 2.33336C8.75117 2.33336 4.67133 3.88502 1.46533 6.47852L0 4.66319ZM3.6645 9.20152C6.3602 7.01752 9.72561 5.82815 13.195 5.83336C16.6642 5.8282 20.0295 7.01711 22.7255 9.20036L21.259 11.0157C18.978 9.16808 16.1304 8.16204 13.195 8.16669C10.1407 8.16669 7.33483 9.23419 5.131 11.0157L3.6645 9.20036V9.20152ZM7.33017 13.7399C8.98899 12.3957 11.06 11.6637 13.195 11.6667C15.4163 11.6667 17.4568 12.4425 19.0598 13.7387L17.5933 15.554C16.3492 14.5463 14.7961 13.9975 13.195 14C11.529 14 9.99833 14.5822 8.79667 15.554L7.33017 13.7387V13.7399ZM10.9958 18.2782C11.6177 17.7739 12.3943 17.4991 13.195 17.5C14.028 17.5 14.7933 17.7917 15.3942 18.277L13.195 21L10.9958 18.277V18.2782Z" fill="#5BB5A2"/>
</svg>
