<svg width="24" height="22" viewBox="0 0 24 22" fill="none" xmlns="http://www.w3.org/2000/svg">
<path d="M1.16667 0.223633H22.1667C22.4761 0.223633 22.7728 0.346549 22.9916 0.565342C23.2104 0.784134 23.3333 1.08088 23.3333 1.3903V20.057C23.3333 20.3664 23.2104 20.6631 22.9916 20.8819C22.7728 21.1007 22.4761 21.2236 22.1667 21.2236H1.16667C0.857247 21.2236 0.560501 21.1007 0.341709 20.8819C0.122916 20.6631 0 20.3664 0 20.057V1.3903C0 1.08088 0.122916 0.784134 0.341709 0.565342C0.560501 0.346549 0.857247 0.223633 1.16667 0.223633V0.223633ZM21 10.7236H2.33333V18.8903H21V10.7236ZM21 6.05697V2.55697H2.33333V6.05697H21Z" fill="#5BB5A2"/>
</svg>
