<svg width="22" height="27" viewBox="0 0 22 27" fill="none" xmlns="http://www.w3.org/2000/svg">
<path d="M11.5613 7.92567C10.5393 7.92567 8.95728 6.76367 7.29128 6.80567C5.09328 6.83367 3.07728 8.07967 1.94328 10.0537C-0.338717 14.0157 1.35528 19.8677 3.58128 23.0877C4.67328 24.6557 5.96128 26.4197 7.66928 26.3637C9.30728 26.2937 9.92328 25.2997 11.9113 25.2997C13.8853 25.2997 14.4453 26.3637 16.1813 26.3217C17.9453 26.2937 19.0653 24.7257 20.1433 23.1437C21.3893 21.3237 21.9073 19.5597 21.9353 19.4617C21.8933 19.4477 18.5053 18.1457 18.4633 14.2257C18.4353 10.9497 21.1373 9.38167 21.2633 9.31167C19.7233 7.05767 17.3573 6.80567 16.5313 6.74967C14.3753 6.58167 12.5693 7.92567 11.5613 7.92567ZM15.2013 4.62167C16.1113 3.52967 16.7133 2.00367 16.5453 0.491669C15.2433 0.547669 13.6753 1.35967 12.7373 2.45167C11.8973 3.41767 11.1693 4.97167 11.3653 6.45567C12.8073 6.56767 14.2913 5.71367 15.2013 4.62167Z" fill="white"/>
</svg>
